<svg xmlns="http://www.w3.org/2000/svg" width="1700" height="600" viewBox="0 0 1700 600"><rect width="100%" height="100%" fill="#FF0000"/><path fill="#31343C" d="M396.715 270.17v40.65q0 6.52-2.86 11.75-2.86 5.24-8.62 8.27-5.77 3.04-14.57 3.04-12.49 0-19.01-6.38-6.51-6.38-6.51-16.85v-40.48h13.29v38.45q0 7.75 3.17 10.92 3.17 3.16 9.41 3.16 4.4 0 7.13-1.49 2.73-1.5 4.01-4.67 1.27-3.16 1.27-8v-38.37zm41.36 13.9q7.92 0 12.5 4.14 4.57 4.13 4.57 13.46V333h-13.2v-27.98q0-5.2-1.89-7.79-1.89-2.6-5.85-2.6-5.99 0-8.14 4.09-2.16 4.1-2.16 11.75V333h-13.29v-48.05h10.21l1.85 6.43h.53q1.58-2.38 3.83-4.01 2.24-1.63 5.01-2.46 2.77-.84 6.03-.84m43.03-17.95v13.46q0 3.88-.22 6.82-.22 2.95-.39 4.71h.7q1.58-2.55 3.7-4.05 2.11-1.49 4.7-2.24 2.6-.75 5.5-.75 5.2 0 9.07 1.85t6.03 5.68q2.15 3.82 2.15 10.07V333h-13.29v-27.98q0-5.2-1.84-7.79-1.85-2.6-5.81-2.6-3.87 0-6.12 1.85-2.24 1.85-3.21 5.37t-.97 8.62V333h-13.29v-66.88zm65.39 17.95q9.06 0 13.81 4.27t4.75 12.63V333h-9.24l-2.55-6.51h-.35q-2.02 2.55-4.18 4.22t-4.97 2.42q-2.82.75-6.87.75-4.22 0-7.56-1.63-3.35-1.63-5.28-4.97-1.94-3.34-1.94-8.45 0-7.57 5.46-11.35 5.45-3.78 16.28-4.22l8-.27v-1.49q0-4.32-1.93-6.03-1.94-1.72-5.46-1.72-3.25 0-6.69 1.06-3.43 1.05-6.77 2.55l-3.87-9.06q3.78-1.94 8.66-3.08 4.89-1.15 10.7-1.15m5.36 26.67-5.01.26q-6.25.18-8.71 2.02-2.47 1.85-2.47 5.2 0 3.08 1.72 4.53 1.71 1.45 4.53 1.45 4.22 0 7.08-2.46 2.86-2.47 2.86-7.04zm59.93 8.09q0 4.58-2.15 7.97-2.16 3.38-6.56 5.23t-11.18 1.85q-5.1 0-8.97-.66t-7.48-2.16v-11q3.87 1.85 8.36 2.91 4.49 1.05 7.74 1.05 4.05 0 5.85-1.14 1.81-1.14 1.81-3.08 0-1.32-.88-2.38-.88-1.05-3.26-2.2-2.37-1.14-6.69-2.81-4.31-1.76-7.21-3.65-2.91-1.9-4.36-4.54t-1.45-6.6q0-6.6 5.24-10.07 5.23-3.48 13.86-3.48 4.66 0 8.66.97 4.01.97 8.06 2.73l-3.79 9.06q-3.34-1.49-6.86-2.46t-6.25-.97q-2.99 0-4.66.92-1.68.93-1.68 2.6 0 1.23.93 2.2.92.97 3.25 2.02 2.34 1.06 6.56 2.73 4.31 1.67 7.22 3.57 2.9 1.89 4.4 4.57 1.49 2.69 1.49 6.82m70.31-48.66h13.47L674.175 333h-14.52l-21.29-62.83h13.46l11.79 37.4q.36.97 1.02 3.56.66 2.6 1.36 5.46t.97 4.79q.26-1.93.92-4.79t1.37-5.46q.7-2.59.96-3.56zm40.4 13.9q6.68 0 11.52 2.51t7.44 7.39q2.6 4.89 2.6 11.93v6.42h-30.89q.17 5.46 3.34 8.58t9.07 3.12q4.48 0 8.18-.88t7.57-2.64v9.95q-3.52 1.76-7.44 2.59-3.91.84-9.72.84-7.13 0-12.63-2.64t-8.67-8.14-3.17-13.77q0-8.45 2.86-14.04t8.01-8.4q5.15-2.82 11.93-2.82m.35 9.42q-3.96 0-6.43 2.51-2.46 2.5-2.9 7.43h18.13q0-2.9-.97-5.1t-2.95-3.52-4.88-1.32m58.25-9.42q1.32 0 2.86.13 1.54.14 2.42.4l-1.32 12.41q-.96-.18-2.28-.35-1.32-.18-3.17-.18-2.03 0-4.09.62-2.07.61-3.83 2.02t-2.82 3.7q-1.05 2.28-1.05 5.8V333h-13.29v-48.05h10.12l1.93 8.1h.62q1.41-2.55 3.52-4.58 2.11-2.02 4.75-3.21t5.63-1.19m69.17 0q8.27 0 12.5 4.14 4.22 4.13 4.22 13.46V333h-13.2v-27.98q0-5.55-1.85-7.97-1.84-2.42-5.54-2.42-5.1 0-7.22 3.7-2.11 3.69-2.11 10.65V333h-13.29v-27.98q0-3.61-.79-5.9t-2.37-3.39q-1.59-1.1-4.05-1.1-3.61 0-5.68 1.85t-2.9 5.37q-.84 3.52-.84 8.62V333h-13.29v-48.05h10.21l1.94 6.16h.44q1.41-2.2 3.47-3.78 2.07-1.59 4.8-2.42 2.73-.84 6.07-.84 5.37 0 8.93 1.85 3.57 1.85 5.59 5.37h.44q2.38-3.61 6.16-5.41 3.79-1.81 8.36-1.81m49.9 0q6.69 0 11.53 2.51t7.43 7.39q2.6 4.89 2.6 11.93v6.42h-30.89q.18 5.46 3.34 8.58 3.17 3.12 9.07 3.12 4.49 0 8.18-.88 3.7-.88 7.57-2.64v9.95q-3.52 1.76-7.44 2.59-3.91.84-9.72.84-7.13 0-12.63-2.64t-8.67-8.14q-3.16-5.5-3.16-13.77 0-8.45 2.86-14.04t8-8.4q5.15-2.82 11.93-2.82m.35 9.42q-3.96 0-6.42 2.51-2.47 2.5-2.91 7.43h18.13q0-2.9-.97-5.1t-2.95-3.52-4.88-1.32m44.97-27.37V333h-13.29v-66.88zm26.22 0v13.46q0 3.88-.22 6.82-.22 2.95-.39 4.71h.7q1.58-2.55 3.7-4.05 2.11-1.49 4.7-2.24 2.6-.75 5.5-.75 5.2 0 9.07 1.85t6.03 5.68q2.15 3.82 2.15 10.07V333h-13.29v-27.98q0-5.2-1.84-7.79-1.85-2.6-5.81-2.6-3.87 0-6.12 1.85-2.24 1.85-3.21 5.37t-.97 8.62V333h-13.29v-66.88zm65.39 17.95q9.06 0 13.81 4.27t4.75 12.63V333h-9.24l-2.55-6.51h-.35q-2.02 2.55-4.18 4.22t-4.97 2.42q-2.82.75-6.87.75-4.22 0-7.56-1.63-3.35-1.63-5.28-4.97-1.94-3.34-1.94-8.45 0-7.57 5.46-11.35 5.45-3.78 16.28-4.22l8-.27v-1.49q0-4.32-1.93-6.03-1.94-1.72-5.46-1.72-3.25 0-6.69 1.06-3.43 1.05-6.77 2.55l-3.87-9.06q3.78-1.94 8.66-3.08 4.89-1.15 10.7-1.15m5.36 26.67-5.01.26q-6.25.18-8.71 2.02-2.47 1.85-2.47 5.2 0 3.08 1.72 4.53 1.71 1.45 4.53 1.45 4.22 0 7.08-2.46 2.86-2.47 2.86-7.04zm59.93 8.09q0 4.58-2.15 7.97-2.16 3.38-6.56 5.23t-11.18 1.85q-5.1 0-8.97-.66t-7.48-2.16v-11q3.87 1.85 8.36 2.91 4.49 1.05 7.74 1.05 4.05 0 5.85-1.14 1.81-1.14 1.81-3.08 0-1.32-.88-2.38-.88-1.05-3.26-2.2-2.37-1.14-6.69-2.81-4.31-1.76-7.21-3.65-2.91-1.9-4.36-4.54t-1.45-6.6q0-6.6 5.24-10.07 5.23-3.48 13.86-3.48 4.66 0 8.66.97 4.01.97 8.06 2.73l-3.79 9.06q-3.34-1.49-6.86-2.46t-6.25-.97q-2.99 0-4.66.92-1.68.93-1.68 2.6 0 1.23.93 2.2.92.97 3.25 2.02 2.34 1.06 6.56 2.73 4.31 1.67 7.22 3.57 2.9 1.89 4.4 4.57 1.49 2.69 1.49 6.82m27.28-12.32q-3.25-1.41-5.5-1.89-2.24-.48-4.27-.48-2.46 0-5.14 1.49-2.69 1.5-4.89 3.7v-9.95q2.2-2.28 4.97-3.47 2.78-1.19 6.03-1.19 2.55 0 5.15.48 2.6.49 6.73 2.25 3.26 1.41 5.55 1.89 2.28.48 4.22.48 2.55 0 5.19-1.49 2.64-1.5 4.84-3.7v9.95q-2.2 2.28-4.93 3.47-2.72 1.19-6.07 1.19-2.55 0-5.15-.53-2.59-.53-6.73-2.2m74.19 15.31V333h-43.92v-9.24l15.76-15.93q4.75-4.93 7.65-8.23 2.91-3.3 4.23-5.98t1.32-5.76q0-3.79-2.07-5.64-2.07-1.84-5.59-1.84-3.61 0-7.04 1.67t-7.22 4.75l-7.21-8.54q2.73-2.37 5.76-4.4 3.04-2.02 7.04-3.3 4.01-1.27 9.64-1.27 6.16 0 10.6 2.24 4.45 2.25 6.87 6.07 2.42 3.83 2.42 8.67 0 5.19-2.07 9.51-2.07 4.31-5.99 8.53-3.91 4.23-9.46 9.33l-8.09 7.57v.61zm49.98-20.24q0 7.57-1.19 13.56-1.19 5.98-3.78 10.16-2.6 4.18-6.78 6.38t-10.25 2.2q-7.57 0-12.41-3.87t-7.17-11.09-2.33-17.34q0-10.2 2.11-17.42t6.95-11.09 12.85-3.87q7.57 0 12.41 3.83t7.21 11.09q2.38 7.26 2.38 17.46m-30.71 0q0 7.13.79 11.93.79 4.79 2.68 7.21 1.9 2.42 5.24 2.42t5.24-2.37q1.89-2.38 2.72-7.17.84-4.8.84-12.02 0-7.21-.84-12.01-.83-4.79-2.72-7.21-1.9-2.42-5.24-2.42t-5.24 2.42q-1.89 2.42-2.68 7.21-.79 4.8-.79 12.01m81.4 20.24V333h-43.91v-9.24l15.75-15.93q4.75-4.93 7.65-8.23 2.91-3.3 4.23-5.98t1.32-5.76q0-3.79-2.07-5.64-2.07-1.84-5.59-1.84-3.61 0-7.04 1.67t-7.21 4.75l-7.22-8.54q2.73-2.37 5.76-4.4 3.04-2.02 7.04-3.3 4.01-1.27 9.64-1.27 6.16 0 10.6 2.24 4.45 2.25 6.87 6.07 2.42 3.83 2.42 8.67 0 5.19-2.07 9.51-2.07 4.31-5.98 8.53-3.92 4.23-9.46 9.33l-8.1 7.57v.61zm5.98-15.48q0-5.46.79-10.74.8-5.28 2.78-9.99t5.54-8.36 9.06-5.72 13.34-2.07q1.84 0 4.31.14 2.46.13 4.13.48v10.65q-1.67-.44-3.65-.66t-3.91-.22q-5.9 0-9.73 1.41-3.83 1.4-6.03 4.04t-3.21 6.21q-1.01 3.56-1.19 7.96h.53q1.23-2.11 3.04-3.74 1.8-1.63 4.44-2.59 2.64-.97 6.16-.97 5.55 0 9.55 2.33t6.2 6.78q2.2 4.44 2.2 10.78 0 6.77-2.59 11.7-2.6 4.93-7.39 7.52-4.8 2.6-11.4 2.6-4.84 0-9.02-1.67t-7.3-5.06q-3.13-3.39-4.89-8.58t-1.76-12.23m22.71 16.89q3.87 0 6.33-2.68 2.47-2.69 2.47-8.32 0-4.57-2.12-7.21-2.11-2.64-6.42-2.64-2.9 0-5.1 1.27-2.2 1.28-3.44 3.3-1.23 2.03-1.23 4.14 0 2.2.62 4.35.61 2.16 1.8 3.92t2.95 2.82q1.76 1.05 4.14 1.05"/></svg>